<svg width="626" height="53" viewBox="0 0 626 53" fill="none" xmlns="http://www.w3.org/2000/svg">
<path d="M31.6667 25.3333H8.33333C6.49238 25.3333 5 26.8257 5 28.6667V40.3333C5 42.1743 6.49238 43.6667 8.33333 43.6667H31.6667C33.5076 43.6667 35 42.1743 35 40.3333V28.6667C35 26.8257 33.5076 25.3333 31.6667 25.3333Z" stroke="black" stroke-width="2" stroke-linecap="round" stroke-linejoin="round"/>
<path d="M11.6667 25.3333V18.6667C11.6646 16.6001 12.4305 14.6064 13.8156 13.0728C15.2008 11.5391 17.1064 10.5748 19.1625 10.3671C21.2186 10.1595 23.2786 10.7232 24.9424 11.9489C26.6063 13.1745 27.7554 14.9747 28.1667 17" stroke="black" stroke-width="2" stroke-linecap="round" stroke-linejoin="round"/>
<g style="mix-blend-mode:darken">
<rect x="48" width="578" height="53" rx="20" fill="#D9D9D9"/>
</g>
</svg>
